<?xml version="1.0" standalone="no"?>
<!DOCTYPE svg PUBLIC "-//W3C//DTD SVG 20010904//EN"
 "http://www.w3.org/TR/2001/REC-SVG-20010904/DTD/svg10.dtd">
<svg version="1.0" xmlns="http://www.w3.org/2000/svg"
 width="220.000000pt" height="220.000000pt" viewBox="0 0 220.000000 220.000000"
 preserveAspectRatio="xMidYMid meet">
<metadata>
Created by potrace 1.16, written by Peter Selinger 2001-2019
</metadata>
<g transform="translate(0.000000,220.000000) scale(0.100000,-0.100000)"
fill="#000000" stroke="none">
<path d="M753 2023 l-313 -176 0 -183 0 -183 -157 89 -158 89 -3 -270 c-1
-148 -1 -390 0 -538 l3 -268 157 89 158 89 155 -87 c85 -47 155 -89 155 -93 0
-3 -62 -41 -138 -83 -75 -43 -145 -83 -155 -91 -17 -12 12 -31 296 -190 173
-97 321 -177 328 -177 20 0 639 351 634 360 -2 4 -72 45 -155 91 -82 46 -150
86 -150 90 0 3 70 45 155 93 l155 87 160 -90 160 -90 0 540 0 540 -52 -29
c-29 -17 -100 -57 -158 -90 l-105 -59 -3 182 -2 183 -314 176 c-172 97 -319
176 -327 176 -8 -1 -155 -80 -326 -177z m220 -122 l108 -61 157 89 157 90 5
-181 5 -180 150 -84 c82 -46 151 -87 152 -91 2 -5 -65 -46 -147 -92 -83 -47
-150 -87 -150 -90 0 -3 68 -44 150 -90 83 -46 150 -86 150 -90 0 -3 -69 -45
-153 -92 l-152 -86 -3 -181 -2 -180 -155 86 c-85 48 -155 90 -155 93 0 3 70
44 155 93 l155 87 0 360 0 361 -32 -19 c-18 -11 -88 -50 -155 -88 -68 -38
-123 -71 -123 -74 0 -3 68 -44 150 -90 83 -46 150 -86 150 -90 0 -3 -70 -45
-155 -93 l-154 -87 -155 87 c-86 48 -156 90 -156 93 0 3 67 43 150 90 82 46
150 87 150 90 0 4 -51 35 -112 69 -62 35 -132 74 -156 87 l-42 25 2 -362 3
-362 150 -84 c82 -46 151 -87 152 -91 2 -5 -66 -47 -150 -94 l-152 -86 -5 181
-5 180 -152 86 c-84 47 -153 88 -153 91 0 3 67 43 150 90 82 46 150 87 150 90
0 4 -67 44 -150 90 -82 46 -150 86 -150 90 0 3 70 44 155 93 l155 87 0 180 0
180 53 -29 c28 -17 101 -57 160 -91z"/>
</g>
</svg>
